<svg width="582" height="50" viewBox="0 0 582 50" fill="none" xmlns="http://www.w3.org/2000/svg">
<path d="M6.7084 0.261278L4.5115 7.60321L3.64843 4.3111C4.67714 4.3111 5.50533 4.5985 6.13302 5.17332C6.77814 5.74813 7.1007 6.54938 7.1007 7.57708C7.1007 8.58735 6.76942 9.39732 6.10687 10.007C5.46174 10.6166 4.64226 10.9214 3.64843 10.9214C2.65459 10.9214 1.82639 10.6166 1.16384 10.007C0.518713 9.39732 0.196152 8.58735 0.196152 7.57708C0.196152 7.29838 0.213588 7.01968 0.248459 6.74099C0.300766 6.46229 0.396663 6.12263 0.536149 5.722C0.69307 5.32137 0.919735 4.79881 1.21614 4.15433L3.04689 0.261278H6.7084ZM14.2929 0.261278L12.096 7.60321L11.233 4.3111C12.2617 4.3111 13.0899 4.5985 13.7176 5.17332C14.3627 5.74813 14.6852 6.54938 14.6852 7.57708C14.6852 8.58735 14.354 9.39732 13.6914 10.007C13.0463 10.6166 12.2268 10.9214 11.233 10.9214C10.2391 10.9214 9.41094 10.6166 8.74838 10.007C8.10326 9.39732 7.7807 8.58735 7.7807 7.57708C7.7807 7.29838 7.79813 7.01968 7.833 6.74099C7.88531 6.46229 7.98121 6.12263 8.12069 5.722C8.27761 5.32137 8.50428 4.79881 8.80069 4.15433L10.6314 0.261278H14.2929Z" fill="#E8F0FD"/>
<path d="M14.2331 19.6481L22.2361 1.35865H28.3037L36.3067 19.6481H29.9252L24.0145 4.28497H26.4207L20.5099 19.6481H14.2331ZM18.993 16.4605L20.5622 12.0188H28.9837L30.5529 16.4605H18.993Z" fill="#E8F0FD"/>
<path d="M37.9965 19.6481V1.35865H47.281C49.5477 1.35865 51.2999 1.77669 52.5379 2.61279C53.7933 3.44888 54.4209 4.62463 54.4209 6.14005C54.4209 7.62062 53.8456 8.79638 52.6948 9.6673C51.544 10.5208 49.9923 10.9476 48.0395 10.9476L48.5625 9.53667C50.6374 9.53667 52.2676 9.946 53.4533 10.7647C54.6389 11.5833 55.2317 12.7765 55.2317 14.3442C55.2317 15.9641 54.5866 17.2531 53.2963 18.2111C52.0061 19.1691 50.1666 19.6481 47.7779 19.6481H37.9965ZM44.0641 15.337H47.4902C47.9959 15.337 48.3707 15.2151 48.6148 14.9713C48.8764 14.71 49.0071 14.3442 49.0071 13.8739C49.0071 13.4036 48.8764 13.0552 48.6148 12.8288C48.3707 12.5849 47.9959 12.463 47.4902 12.463H44.0641V15.337ZM44.0641 8.38704H46.6795C47.2026 8.38704 47.5861 8.27382 47.8302 8.04738C48.0743 7.82094 48.1964 7.48998 48.1964 7.05452C48.1964 6.60164 48.0743 6.26198 47.8302 6.03553C47.5861 5.79167 47.2026 5.66974 46.6795 5.66974H44.0641V8.38704Z" fill="#E8F0FD"/>
<path d="M61.3359 19.6481V4.80753L62.6698 6.14005H55.9744V1.35865H72.765V6.14005H66.0697L67.4035 4.80753V19.6481H61.3359Z" fill="#E8F0FD"/>
<path d="M83.8558 20.0662C82.3738 20.0662 80.9963 19.831 79.7235 19.3607C78.4682 18.8904 77.3784 18.2285 76.4543 17.375C75.5302 16.5041 74.8066 15.4851 74.2836 14.3181C73.7779 13.151 73.5251 11.8795 73.5251 10.5034C73.5251 9.10991 73.7779 7.83836 74.2836 6.68873C74.8066 5.52169 75.5302 4.51141 76.4543 3.6579C77.3784 2.78697 78.4682 2.11636 79.7235 1.64606C80.9963 1.17575 82.3738 0.940603 83.8558 0.940603C85.3553 0.940603 86.7327 1.17575 87.9881 1.64606C89.2434 2.11636 90.3332 2.78697 91.2573 3.6579C92.1814 4.51141 92.8962 5.52169 93.4019 6.68873C93.9249 7.83836 94.1865 9.10991 94.1865 10.5034C94.1865 11.8795 93.9249 13.151 93.4019 14.3181C92.8962 15.4851 92.1814 16.5041 91.2573 17.375C90.3332 18.2285 89.2434 18.8904 87.9881 19.3607C86.7327 19.831 85.3553 20.0662 83.8558 20.0662ZM83.8558 15.0758C84.4312 15.0758 84.963 14.9713 85.4512 14.7622C85.9568 14.5532 86.3927 14.2571 86.7589 13.8739C87.1424 13.4733 87.4388 12.9943 87.6481 12.4369C87.8573 11.862 87.9619 11.2176 87.9619 10.5034C87.9619 9.78924 87.8573 9.15346 87.6481 8.59606C87.4388 8.02125 87.1424 7.54224 86.7589 7.15903C86.3927 6.7584 85.9568 6.45358 85.4512 6.24456C84.963 6.03553 84.4312 5.93102 83.8558 5.93102C83.2804 5.93102 82.7399 6.03553 82.2343 6.24456C81.7461 6.45358 81.3102 6.7584 80.9266 7.15903C80.5604 7.54224 80.2728 8.02125 80.0635 8.59606C79.8543 9.15346 79.7497 9.78924 79.7497 10.5034C79.7497 11.2176 79.8543 11.862 80.0635 12.4369C80.2728 12.9943 80.5604 13.4733 80.9266 13.8739C81.3102 14.2571 81.7461 14.5532 82.2343 14.7622C82.7399 14.9713 83.2804 15.0758 83.8558 15.0758Z" fill="#E8F0FD"/>
<path d="M96.4079 19.6481V1.35865H105.692C107.959 1.35865 109.711 1.77669 110.949 2.61279C112.205 3.44888 112.832 4.62463 112.832 6.14005C112.832 7.62062 112.257 8.79638 111.106 9.6673C109.955 10.5208 108.404 10.9476 106.451 10.9476L106.974 9.53667C109.049 9.53667 110.679 9.946 111.865 10.7647C113.05 11.5833 113.643 12.7765 113.643 14.3442C113.643 15.9641 112.998 17.2531 111.708 18.2111C110.418 19.1691 108.578 19.6481 106.189 19.6481H96.4079ZM102.476 15.337H105.902C106.407 15.337 106.782 15.2151 107.026 14.9713C107.288 14.71 107.419 14.3442 107.419 13.8739C107.419 13.4036 107.288 13.0552 107.026 12.8288C106.782 12.5849 106.407 12.463 105.902 12.463H102.476V15.337ZM102.476 8.38704H105.091C105.614 8.38704 105.998 8.27382 106.242 8.04738C106.486 7.82094 106.608 7.48998 106.608 7.05452C106.608 6.60164 106.486 6.26198 106.242 6.03553C105.998 5.79167 105.614 5.66974 105.091 5.66974H102.476V8.38704Z" fill="#E8F0FD"/>
<path d="M115.844 19.6481V1.35865H121.912V10.8692L128.215 1.35865H134.021V19.6481H127.953V10.1637L121.677 19.6481H115.844Z" fill="#E8F0FD"/>
<path d="M135.991 18.4463L137.796 14.1874C138.563 14.501 139.348 14.7448 140.15 14.919C140.969 15.0932 141.754 15.2064 142.504 15.2587C143.253 15.2935 143.916 15.2587 144.491 15.1542C145.084 15.0496 145.555 14.8755 145.904 14.6316C146.252 14.3877 146.427 14.0655 146.427 13.6649C146.427 13.2468 146.252 12.9594 145.904 12.8026C145.555 12.6459 145.128 12.5675 144.622 12.5675H139.679V8.12576H144.099C144.622 8.12576 145.014 8.02996 145.276 7.83836C145.555 7.62933 145.694 7.35934 145.694 7.02839C145.694 6.6626 145.537 6.3752 145.224 6.16617C144.927 5.95715 144.517 5.8178 143.994 5.74813C143.489 5.66104 142.913 5.65233 142.268 5.722C141.623 5.77426 140.952 5.90489 140.254 6.11392C139.574 6.30552 138.912 6.55809 138.267 6.87163L136.462 2.37764C137.752 1.7854 139.104 1.38478 140.516 1.17575C141.946 0.949312 143.332 0.905766 144.674 1.04511C146.034 1.16704 147.255 1.45445 148.336 1.90733C149.434 2.36022 150.306 2.96116 150.951 3.71016C151.596 4.44174 151.919 5.31266 151.919 6.32294C151.919 7.19387 151.684 7.9777 151.213 8.67445C150.742 9.35377 150.097 9.88504 149.277 10.2682C148.475 10.6515 147.56 10.8431 146.531 10.8431L146.662 9.61505C147.865 9.61505 148.911 9.83278 149.8 10.2682C150.707 10.6863 151.405 11.2611 151.893 11.9927C152.398 12.7243 152.651 13.5604 152.651 14.501C152.651 15.3719 152.416 16.1557 151.945 16.8525C151.474 17.5318 150.82 18.1153 149.984 18.603C149.164 19.0733 148.205 19.4304 147.107 19.6743C146.026 19.9181 144.857 20.0401 143.602 20.0401C142.364 20.0575 141.091 19.9268 139.784 19.6481C138.493 19.3869 137.229 18.9862 135.991 18.4463Z" fill="#E8F0FD"/>
<path d="M154.845 19.6481V1.35865H160.912V10.8692L167.215 1.35865H173.022V19.6481H166.954V10.1637L160.677 19.6481H154.845Z" fill="#E8F0FD"/>
<path d="M180.432 19.6481V4.80753L181.766 6.14005H175.07V1.35865H191.861V6.14005H185.166L186.499 4.80753V19.6481H180.432Z" fill="#E8F0FD"/>
<path d="M193.727 10.6602L195.924 3.31824L196.787 6.61035C195.775 6.61035 194.947 6.32294 194.302 5.74813C193.657 5.1559 193.334 4.35464 193.334 3.34437C193.334 2.31667 193.657 1.50671 194.302 0.914476C194.965 0.304825 195.793 0 196.787 0C197.78 0 198.6 0.304825 199.245 0.914476C199.908 1.50671 200.239 2.31667 200.239 3.34437C200.239 3.62306 200.213 3.90176 200.16 4.18046C200.126 4.45915 200.038 4.79882 199.899 5.19944C199.759 5.58265 199.533 6.10521 199.219 6.76711L197.388 10.6602H193.727ZM201.311 10.6602L203.508 3.31824L204.371 6.61035C203.36 6.61035 202.532 6.32294 201.887 5.74813C201.241 5.1559 200.919 4.35464 200.919 3.34437C200.919 2.31667 201.241 1.50671 201.887 0.914476C202.549 0.304825 203.377 0 204.371 0C205.365 0 206.184 0.304825 206.83 0.914476C207.492 1.50671 207.823 2.31667 207.823 3.34437C207.823 3.62306 207.797 3.90176 207.745 4.18046C207.71 4.45915 207.623 4.79882 207.483 5.19944C207.344 5.58265 207.117 6.10521 206.803 6.76711L204.973 10.6602H201.311Z" fill="#E8F0FD"/>
<path d="M0 45.776L6.97429 30.5347H8.5653L15.5396 45.776H13.8396L7.43198 31.471H8.08582L1.67819 45.776H0ZM2.74613 41.7044L3.22561 40.398H12.096L12.5755 41.7044H2.74613Z" fill="#E8F0FD"/>
<path d="M18.0926 45.776V34.3451H23.149C24.4422 34.3451 25.4592 34.5918 26.2003 35.0854C26.9558 35.5789 27.3336 36.3046 27.3336 37.2627C27.3336 38.1917 26.9776 38.9102 26.2656 39.4182C25.5537 39.9117 24.6165 40.1585 23.4541 40.1585L23.7593 39.7013C25.1251 39.7013 26.1276 39.9553 26.7669 40.4633C27.4062 40.9714 27.7259 41.7044 27.7259 42.6624C27.7259 43.6495 27.3626 44.4188 26.6362 44.9704C25.9242 45.5075 24.8127 45.776 23.3016 45.776H18.0926ZM19.5965 44.5567H23.2362C24.2097 44.5567 24.9434 44.4043 25.4374 44.0995C25.946 43.7801 26.2003 43.2721 26.2003 42.5753C26.2003 41.8786 25.975 41.3705 25.5246 41.0512C25.0742 40.7319 24.3622 40.5722 23.3887 40.5722H19.5965V44.5567ZM19.5965 39.4182H23.04C23.9263 39.4182 24.602 39.2513 25.0669 38.9174C25.5464 38.5836 25.7862 38.0973 25.7862 37.4586C25.7862 36.82 25.5464 36.3409 25.0669 36.0216C24.602 35.7023 23.9263 35.5426 23.04 35.5426H19.5965V39.4182Z" fill="#E8F0FD"/>
<path d="M33.5319 45.776V35.2813L33.9243 35.695H29.1948V34.3451H39.4165V35.695H34.6871L35.0794 35.2813V45.776H33.5319Z" fill="#E8F0FD"/>
<path d="M45.8294 45.8849C44.7252 45.8849 43.7299 45.6381 42.8435 45.1446C41.9718 44.6365 41.2816 43.947 40.7731 43.0761C40.2645 42.1907 40.0102 41.1819 40.0102 40.0496C40.0102 38.9029 40.2645 37.8941 40.7731 37.0232C41.2816 36.1522 41.9718 35.47 42.8435 34.9765C43.7153 34.483 44.7106 34.2362 45.8294 34.2362C46.9627 34.2362 47.9653 34.483 48.8371 34.9765C49.7234 35.47 50.4136 36.1522 50.9076 37.0232C51.4161 37.8941 51.6704 38.9029 51.6704 40.0496C51.6704 41.1819 51.4161 42.1907 50.9076 43.0761C50.4136 43.947 49.7234 44.6365 48.8371 45.1446C47.9508 45.6381 46.9482 45.8849 45.8294 45.8849ZM45.8294 44.5131C46.6576 44.5131 47.3914 44.3317 48.0307 43.9688C48.67 43.5914 49.1713 43.0689 49.5345 42.4011C49.9123 41.7189 50.1012 40.9351 50.1012 40.0496C50.1012 39.1497 49.9123 38.3658 49.5345 37.6981C49.1713 37.0304 48.67 36.5151 48.0307 36.1522C47.3914 35.7748 46.6649 35.5861 45.8512 35.5861C45.0375 35.5861 44.3111 35.7748 43.6717 36.1522C43.0324 36.5151 42.5239 37.0304 42.1461 37.6981C41.7683 38.3658 41.5795 39.1497 41.5795 40.0496C41.5795 40.9351 41.7683 41.7189 42.1461 42.4011C42.5239 43.0689 43.0324 43.5914 43.6717 43.9688C44.3111 44.3317 45.0303 44.5131 45.8294 44.5131Z" fill="#E8F0FD"/>
<path d="M54.9776 45.776V34.3451H56.5468L61.7339 43.1197H61.0801L66.3544 34.3451H67.7928V45.776H66.3762V36.1087L66.6595 36.2393L61.7339 44.3825H61.0365L56.0673 36.1522L56.3942 36.0869V45.776H54.9776Z" fill="#E8F0FD"/>
<path d="M79.3013 45.776V43.2503L79.2359 42.8366V38.6126C79.2359 37.6401 78.9598 36.8925 78.4077 36.37C77.8701 35.8474 77.0637 35.5861 75.9885 35.5861C75.2474 35.5861 74.5428 35.7095 73.8744 35.9563C73.206 36.203 72.6394 36.5296 72.1744 36.9361L71.477 35.7821C72.0582 35.2886 72.7556 34.9112 73.5693 34.6499C74.3829 34.3741 75.2402 34.2362 76.141 34.2362C77.6231 34.2362 78.7637 34.6063 79.5628 35.3466C80.3765 36.0724 80.7833 37.1828 80.7833 38.6779V45.776H79.3013ZM75.3564 45.8849C74.4992 45.8849 73.7509 45.747 73.1116 45.4712C72.4868 45.1809 72.0073 44.7889 71.6731 44.2954C71.3389 43.7874 71.1718 43.2068 71.1718 42.5536C71.1718 41.9584 71.3099 41.4214 71.586 40.9423C71.8765 40.4488 72.3415 40.0569 72.9808 39.7666C73.6347 39.4618 74.5064 39.3094 75.5962 39.3094H79.541V40.4633H75.6398C74.5355 40.4633 73.7654 40.6593 73.3295 41.0512C72.9082 41.4431 72.6975 41.9294 72.6975 42.51C72.6975 43.1632 72.9517 43.6858 73.4603 44.0777C73.9688 44.4696 74.6808 44.6656 75.5962 44.6656C76.4679 44.6656 77.2162 44.4696 77.841 44.0777C78.4803 43.6712 78.9453 43.0906 79.2359 42.3358L79.5846 43.4027C79.294 44.1575 78.7855 44.7599 78.059 45.2099C77.347 45.6599 76.4462 45.8849 75.3564 45.8849Z" fill="#E8F0FD"/>
<path d="M87.0821 45.776V35.2813L87.4744 35.695H82.745V34.3451H92.9667V35.695H88.2372L88.6295 35.2813V45.776H87.0821Z" fill="#E8F0FD"/>
<path d="M95.204 45.776V34.3451H96.7515V43.4245L104.401 34.3451H105.774V45.776H104.227V36.6748L96.5989 45.776H95.204Z" fill="#E8F0FD"/>
<path d="M113.048 45.9066C112.22 45.9066 111.399 45.7905 110.585 45.5583C109.772 45.326 109.052 44.9704 108.428 44.4914L108.929 43.3374C109.481 43.7438 110.12 44.0559 110.847 44.2736C111.573 44.4769 112.293 44.5785 113.005 44.5785C113.716 44.564 114.334 44.4623 114.857 44.2736C115.38 44.0849 115.787 43.8237 116.078 43.4898C116.368 43.156 116.513 42.7786 116.513 42.3576C116.513 41.748 116.237 41.2762 115.685 40.9423C115.133 40.594 114.378 40.4198 113.419 40.4198H111.457V39.2876H113.31C113.876 39.2876 114.378 39.215 114.813 39.0698C115.249 38.9247 115.584 38.7142 115.816 38.4384C116.063 38.1626 116.187 37.836 116.187 37.4586C116.187 37.0522 116.041 36.7038 115.751 36.4135C115.475 36.1232 115.09 35.9055 114.596 35.7603C114.101 35.6152 113.542 35.5426 112.917 35.5426C112.351 35.5571 111.762 35.6442 111.152 35.8039C110.542 35.949 109.939 36.174 109.343 36.4788L108.907 35.2813C109.575 34.9329 110.237 34.6717 110.89 34.4975C111.559 34.3088 112.227 34.2144 112.896 34.2144C113.811 34.1854 114.632 34.2943 115.358 34.541C116.099 34.7878 116.688 35.1434 117.124 35.6079C117.56 36.0579 117.778 36.6022 117.778 37.2409C117.778 37.807 117.603 38.3005 117.254 38.7215C116.906 39.1424 116.441 39.469 115.86 39.7013C115.278 39.9335 114.617 40.0496 113.876 40.0496L113.942 39.636C115.249 39.636 116.266 39.89 116.993 40.398C117.734 40.9061 118.104 41.5955 118.104 42.4665C118.104 43.1487 117.879 43.7511 117.429 44.2736C116.978 44.7817 116.368 45.1809 115.598 45.4712C114.843 45.7615 113.993 45.9066 113.048 45.9066Z" fill="#E8F0FD"/>
<path d="M121.617 45.776V34.3451H123.165V43.4245L130.815 34.3451H132.188V45.776H130.64V36.6748L123.012 45.776H121.617Z" fill="#E8F0FD"/>
<path d="M142.529 45.8849C141.541 45.8849 140.647 45.6599 139.848 45.2099C139.049 44.7454 138.41 44.0849 137.93 43.2285C137.465 42.3576 137.233 41.298 137.233 40.0496C137.233 38.8013 137.465 37.7489 137.93 36.8925C138.395 36.0216 139.027 35.3611 139.826 34.9112C140.625 34.4612 141.526 34.2362 142.529 34.2362C143.619 34.2362 144.592 34.483 145.449 34.9765C146.321 35.4555 147.004 36.1377 147.498 37.0232C147.992 37.8941 148.239 38.9029 148.239 40.0496C148.239 41.2109 147.992 42.227 147.498 43.0979C147.004 43.9688 146.321 44.6511 145.449 45.1446C144.592 45.6381 143.619 45.8849 142.529 45.8849ZM136.622 50V34.3451H138.104V37.7852L137.952 40.0714L138.17 42.3794V50H136.622ZM142.42 44.5131C143.233 44.5131 143.96 44.3317 144.599 43.9688C145.239 43.5914 145.747 43.0689 146.125 42.4011C146.503 41.7189 146.692 40.9351 146.692 40.0496C146.692 39.1642 146.503 38.3876 146.125 37.7199C145.747 37.0522 145.239 36.5296 144.599 36.1522C143.96 35.7748 143.233 35.5861 142.42 35.5861C141.606 35.5861 140.872 35.7748 140.219 36.1522C139.579 36.5296 139.071 37.0522 138.693 37.7199C138.33 38.3876 138.148 39.1642 138.148 40.0496C138.148 40.9351 138.33 41.7189 138.693 42.4011C139.071 43.0689 139.579 43.5914 140.219 43.9688C140.872 44.3317 141.606 44.5131 142.42 44.5131Z" fill="#E8F0FD"/>
<path d="M156.271 45.8849C155.167 45.8849 154.172 45.6381 153.285 45.1446C152.414 44.6365 151.724 43.947 151.215 43.0761C150.706 42.1907 150.452 41.1819 150.452 40.0496C150.452 38.9029 150.706 37.8941 151.215 37.0232C151.724 36.1522 152.414 35.47 153.285 34.9765C154.157 34.483 155.153 34.2362 156.271 34.2362C157.405 34.2362 158.407 34.483 159.279 34.9765C160.165 35.47 160.855 36.1522 161.349 37.0232C161.858 37.8941 162.112 38.9029 162.112 40.0496C162.112 41.1819 161.858 42.1907 161.349 43.0761C160.855 43.947 160.165 44.6365 159.279 45.1446C158.393 45.6381 157.39 45.8849 156.271 45.8849ZM156.271 44.5131C157.1 44.5131 157.833 44.3317 158.473 43.9688C159.112 43.5914 159.613 43.0689 159.976 42.4011C160.354 41.7189 160.543 40.9351 160.543 40.0496C160.543 39.1497 160.354 38.3658 159.976 37.6981C159.613 37.0304 159.112 36.5151 158.473 36.1522C157.833 35.7748 157.107 35.5861 156.293 35.5861C155.479 35.5861 154.753 35.7748 154.114 36.1522C153.474 36.5151 152.966 37.0304 152.588 37.6981C152.21 38.3658 152.021 39.1497 152.021 40.0496C152.021 40.9351 152.21 41.7189 152.588 42.4011C152.966 43.0689 153.474 43.5914 154.114 43.9688C154.753 44.3317 155.472 44.5131 156.271 44.5131Z" fill="#E8F0FD"/>
<path d="M165.419 45.776V34.3451H170.476C171.769 34.3451 172.786 34.5918 173.527 35.0854C174.283 35.5789 174.66 36.3046 174.66 37.2627C174.66 38.1917 174.304 38.9102 173.592 39.4182C172.881 39.9117 171.943 40.1585 170.781 40.1585L171.086 39.7013C172.452 39.7013 173.454 39.9553 174.094 40.4633C174.733 40.9714 175.053 41.7044 175.053 42.6624C175.053 43.6495 174.689 44.4188 173.963 44.9704C173.251 45.5075 172.14 45.776 170.628 45.776H165.419ZM166.923 44.5567H170.563C171.537 44.5567 172.27 44.4043 172.764 44.0995C173.273 43.7801 173.527 43.2721 173.527 42.5753C173.527 41.8786 173.302 41.3705 172.851 41.0512C172.401 40.7319 171.689 40.5722 170.716 40.5722H166.923V44.5567ZM166.923 39.4182H170.367C171.253 39.4182 171.929 39.2513 172.394 38.9174C172.873 38.5836 173.113 38.0973 173.113 37.4586C173.113 36.82 172.873 36.3409 172.394 36.0216C171.929 35.7023 171.253 35.5426 170.367 35.5426H166.923V39.4182Z" fill="#E8F0FD"/>
<path d="M185.784 45.776V43.2503L185.719 42.8366V38.6126C185.719 37.6401 185.443 36.8925 184.891 36.37C184.353 35.8474 183.547 35.5861 182.472 35.5861C181.731 35.5861 181.026 35.7095 180.358 35.9563C179.689 36.203 179.122 36.5296 178.658 36.9361L177.96 35.7821C178.541 35.2886 179.239 34.9112 180.052 34.6499C180.866 34.3741 181.723 34.2362 182.624 34.2362C184.106 34.2362 185.247 34.6063 186.046 35.3466C186.86 36.0724 187.266 37.1828 187.266 38.6779V45.776H185.784ZM181.84 45.8849C180.982 45.8849 180.234 45.747 179.595 45.4712C178.97 45.1809 178.49 44.7889 178.156 44.2954C177.822 43.7874 177.655 43.2068 177.655 42.5536C177.655 41.9584 177.793 41.4214 178.069 40.9423C178.36 40.4488 178.825 40.0569 179.464 39.7666C180.118 39.4618 180.99 39.3094 182.079 39.3094H186.024V40.4633H182.123C181.019 40.4633 180.249 40.6593 179.813 41.0512C179.391 41.4431 179.181 41.9294 179.181 42.51C179.181 43.1632 179.435 43.6858 179.943 44.0777C180.452 44.4696 181.164 44.6656 182.079 44.6656C182.951 44.6656 183.699 44.4696 184.324 44.0777C184.963 43.6712 185.428 43.0906 185.719 42.3358L186.068 43.4027C185.777 44.1575 185.269 44.7599 184.542 45.2099C183.83 45.6599 182.929 45.8849 181.84 45.8849Z" fill="#E8F0FD"/>
<path d="M191.386 45.776V34.3451H192.933V39.3964H200.147V34.3451H201.695V45.776H200.147V40.7246H192.933V45.776H191.386Z" fill="#E8F0FD"/>
<path d="M206.093 45.776V34.3451H207.64V39.3964H214.854V34.3451H216.402V45.776H214.854V40.7246H207.64V45.776H206.093Z" fill="#E8F0FD"/>
<path d="M227.905 45.776V43.2503L227.84 42.8366V38.6126C227.84 37.6401 227.564 36.8925 227.012 36.37C226.474 35.8474 225.668 35.5861 224.592 35.5861C223.851 35.5861 223.147 35.7095 222.478 35.9563C221.81 36.203 221.243 36.5296 220.778 36.9361L220.081 35.7821C220.662 35.2886 221.359 34.9112 222.173 34.6499C222.987 34.3741 223.844 34.2362 224.745 34.2362C226.227 34.2362 227.368 34.6063 228.167 35.3466C228.98 36.0724 229.387 37.1828 229.387 38.6779V45.776H227.905ZM223.96 45.8849C223.103 45.8849 222.355 45.747 221.715 45.4712C221.091 45.1809 220.611 44.7889 220.277 44.2954C219.943 43.7874 219.776 43.2068 219.776 42.5536C219.776 41.9584 219.914 41.4214 220.19 40.9423C220.48 40.4488 220.945 40.0569 221.585 39.7666C222.239 39.4618 223.11 39.3094 224.2 39.3094H228.145V40.4633H224.244C223.139 40.4633 222.369 40.6593 221.933 41.0512C221.512 41.4431 221.301 41.9294 221.301 42.51C221.301 43.1632 221.556 43.6858 222.064 44.0777C222.573 44.4696 223.285 44.6656 224.2 44.6656C225.072 44.6656 225.82 44.4696 226.445 44.0777C227.084 43.6712 227.549 43.0906 227.84 42.3358L228.188 43.4027C227.898 44.1575 227.389 44.7599 226.663 45.2099C225.951 45.6599 225.05 45.8849 223.96 45.8849Z" fill="#E8F0FD"/>
<path d="M240.895 45.776V41.6609L241.178 41.9875H237.299C235.831 41.9875 234.683 41.6681 233.855 41.0294C233.027 40.3908 232.613 39.4618 232.613 38.2425C232.613 36.9361 233.056 35.9635 233.942 35.3249C234.829 34.6717 236.013 34.3451 237.495 34.3451H242.312V45.776H240.895ZM232.526 45.776L235.664 41.3778H237.277L234.204 45.776H232.526ZM240.895 41.2036V35.2378L241.178 35.695H237.539C236.478 35.695 235.65 35.8982 235.054 36.3046C234.473 36.7111 234.182 37.3715 234.182 38.286C234.182 39.9843 235.265 40.8335 237.43 40.8335H241.178L240.895 41.2036Z" fill="#E8F0FD"/>
<path d="M257.223 45.8849C256.089 45.8849 255.072 45.6381 254.171 45.1446C253.285 44.6365 252.588 43.947 252.079 43.0761C251.571 42.1907 251.316 41.1819 251.316 40.0496C251.316 38.9029 251.571 37.8941 252.079 37.0232C252.588 36.1522 253.285 35.47 254.171 34.9765C255.072 34.483 256.089 34.2362 257.223 34.2362C258.196 34.2362 259.075 34.4249 259.86 34.8023C260.644 35.1797 261.262 35.7458 261.712 36.5006L260.557 37.2844C260.165 36.7038 259.678 36.2756 259.097 35.9998C258.516 35.724 257.884 35.5861 257.201 35.5861C256.387 35.5861 255.653 35.7748 255 36.1522C254.346 36.5151 253.83 37.0304 253.452 37.6981C253.074 38.3658 252.886 39.1497 252.886 40.0496C252.886 40.9496 253.074 41.7334 253.452 42.4011C253.83 43.0689 254.346 43.5914 255 43.9688C255.653 44.3317 256.387 44.5131 257.201 44.5131C257.884 44.5131 258.516 44.3753 259.097 44.0995C259.678 43.8237 260.165 43.4027 260.557 42.8366L261.712 43.6204C261.262 44.3607 260.644 44.9268 259.86 45.3188C259.075 45.6962 258.196 45.8849 257.223 45.8849Z" fill="#E8F0FD"/>
<path d="M264.709 45.776V34.3451H266.256V43.4245L273.906 34.3451H275.279V45.776H273.732V36.6748L266.104 45.776H264.709Z" fill="#E8F0FD"/>
<path d="M284.509 45.8849C283.375 45.8849 282.358 45.6381 281.457 45.1446C280.571 44.6365 279.874 43.947 279.365 43.0761C278.857 42.1907 278.602 41.1819 278.602 40.0496C278.602 38.9029 278.857 37.8941 279.365 37.0232C279.874 36.1522 280.571 35.47 281.457 34.9765C282.358 34.483 283.375 34.2362 284.509 34.2362C285.482 34.2362 286.361 34.4249 287.146 34.8023C287.93 35.1797 288.548 35.7458 288.998 36.5006L287.843 37.2844C287.451 36.7038 286.964 36.2756 286.383 35.9998C285.802 35.724 285.17 35.5861 284.487 35.5861C283.673 35.5861 282.939 35.7748 282.286 36.1522C281.632 36.5151 281.116 37.0304 280.738 37.6981C280.36 38.3658 280.171 39.1497 280.171 40.0496C280.171 40.9496 280.36 41.7334 280.738 42.4011C281.116 43.0689 281.632 43.5914 282.286 43.9688C282.939 44.3317 283.673 44.5131 284.487 44.5131C285.17 44.5131 285.802 44.3753 286.383 44.0995C286.964 43.8237 287.451 43.4027 287.843 42.8366L288.998 43.6204C288.548 44.3607 287.93 44.9268 287.146 45.3188C286.361 45.6962 285.482 45.8849 284.509 45.8849Z" fill="#E8F0FD"/>
<path d="M293.961 45.776V35.2813L294.353 35.695H289.624V34.3451H299.846V35.695H295.116L295.509 35.2813V45.776H293.961Z" fill="#E8F0FD"/>
<path d="M306.455 45.8849C305.263 45.8849 304.217 45.6381 303.316 45.1446C302.416 44.6365 301.711 43.947 301.202 43.0761C300.694 42.1907 300.44 41.1819 300.44 40.0496C300.44 38.9174 300.679 37.9159 301.159 37.0449C301.653 36.174 302.321 35.4918 303.164 34.9983C304.021 34.4902 304.98 34.2362 306.041 34.2362C307.116 34.2362 308.068 34.483 308.896 34.9765C309.739 35.4555 310.4 36.1377 310.879 37.0232C311.359 37.8941 311.598 38.9029 311.598 40.0496C311.598 40.1222 311.591 40.2021 311.577 40.2891C311.577 40.3617 311.577 40.4416 311.577 40.5287H301.616V39.3747H310.748L310.138 39.8319C310.138 39.0045 309.957 38.2715 309.593 37.6328C309.245 36.9796 308.765 36.4716 308.155 36.1087C307.545 35.7458 306.84 35.5644 306.041 35.5644C305.256 35.5644 304.551 35.7458 303.927 36.1087C303.302 36.4716 302.815 36.9796 302.466 37.6328C302.118 38.286 301.943 39.0336 301.943 39.8755V40.115C301.943 40.9859 302.132 41.7552 302.51 42.4229C302.902 43.0761 303.44 43.5914 304.123 43.9688C304.82 44.3317 305.612 44.5131 306.498 44.5131C307.196 44.5131 307.842 44.3898 308.438 44.143C309.048 43.8962 309.571 43.5188 310.007 43.0108L310.879 44.0124C310.371 44.622 309.731 45.0865 308.961 45.4059C308.206 45.7252 307.37 45.8849 306.455 45.8849Z" fill="#E8F0FD"/>
<path d="M315.024 45.776V34.3451H316.593L321.78 43.1197H321.126L326.401 34.3451H327.839V45.776H326.422V36.1087L326.706 36.2393L321.78 44.3825H321.083L316.113 36.1522L316.44 36.0869V45.776H315.024Z" fill="#E8F0FD"/>
<path d="M339.347 45.776V43.2503L339.282 42.8366V38.6126C339.282 37.6401 339.006 36.8925 338.454 36.37C337.916 35.8474 337.11 35.5861 336.035 35.5861C335.294 35.5861 334.589 35.7095 333.921 35.9563C333.252 36.203 332.686 36.5296 332.221 36.9361L331.523 35.7821C332.104 35.2886 332.802 34.9112 333.615 34.6499C334.429 34.3741 335.286 34.2362 336.187 34.2362C337.669 34.2362 338.81 34.6063 339.609 35.3466C340.423 36.0724 340.829 37.1828 340.829 38.6779V45.776H339.347ZM335.403 45.8849C334.545 45.8849 333.797 45.747 333.158 45.4712C332.533 45.1809 332.053 44.7889 331.719 44.2954C331.385 43.7874 331.218 43.2068 331.218 42.5536C331.218 41.9584 331.356 41.4214 331.632 40.9423C331.923 40.4488 332.388 40.0569 333.027 39.7666C333.681 39.4618 334.553 39.3094 335.642 39.3094H339.587V40.4633H335.686C334.582 40.4633 333.812 40.6593 333.376 41.0512C332.954 41.4431 332.744 41.9294 332.744 42.51C332.744 43.1632 332.998 43.6858 333.506 44.0777C334.015 44.4696 334.727 44.6656 335.642 44.6656C336.514 44.6656 337.262 44.4696 337.887 44.0777C338.526 43.6712 338.991 43.0906 339.282 42.3358L339.631 43.4027C339.34 44.1575 338.832 44.7599 338.105 45.2099C337.393 45.6599 336.492 45.8849 335.403 45.8849Z" fill="#E8F0FD"/>
<path d="M353.726 45.9066C352.898 45.9066 352.077 45.7905 351.263 45.5583C350.449 45.326 349.73 44.9704 349.105 44.4914L349.607 43.3374C350.159 43.7438 350.798 44.0559 351.525 44.2736C352.251 44.4769 352.97 44.5785 353.682 44.5785C354.394 44.564 355.012 44.4623 355.535 44.2736C356.058 44.0849 356.465 43.8237 356.755 43.4898C357.046 43.156 357.191 42.7786 357.191 42.3576C357.191 41.748 356.915 41.2762 356.363 40.9423C355.811 40.594 355.055 40.4198 354.096 40.4198H352.135V39.2876H353.987C354.554 39.2876 355.055 39.215 355.491 39.0698C355.927 38.9247 356.261 38.7142 356.494 38.4384C356.741 38.1626 356.864 37.836 356.864 37.4586C356.864 37.0522 356.719 36.7038 356.428 36.4135C356.152 36.1232 355.767 35.9055 355.273 35.7603C354.779 35.6152 354.22 35.5426 353.595 35.5426C353.029 35.5571 352.44 35.6442 351.83 35.8039C351.22 35.949 350.617 36.174 350.021 36.4788L349.585 35.2813C350.253 34.9329 350.914 34.6717 351.568 34.4975C352.237 34.3088 352.905 34.2144 353.573 34.2144C354.489 34.1854 355.31 34.2943 356.036 34.541C356.777 34.7878 357.366 35.1434 357.802 35.6079C358.237 36.0579 358.455 36.6022 358.455 37.2409C358.455 37.807 358.281 38.3005 357.932 38.7215C357.584 39.1424 357.119 39.469 356.537 39.7013C355.956 39.9335 355.295 40.0496 354.554 40.0496L354.619 39.636C355.927 39.636 356.944 39.89 357.671 40.398C358.412 40.9061 358.782 41.5955 358.782 42.4665C358.782 43.1487 358.557 43.7511 358.107 44.2736C357.656 44.7817 357.046 45.1809 356.276 45.4712C355.52 45.7615 354.67 45.9066 353.726 45.9066Z" fill="#E8F0FD"/>
<path d="M369.4 45.776V43.2503L369.335 42.8366V38.6126C369.335 37.6401 369.059 36.8925 368.507 36.37C367.969 35.8474 367.163 35.5861 366.087 35.5861C365.346 35.5861 364.642 35.7095 363.973 35.9563C363.305 36.203 362.738 36.5296 362.273 36.9361L361.576 35.7821C362.157 35.2886 362.855 34.9112 363.668 34.6499C364.482 34.3741 365.339 34.2362 366.24 34.2362C367.722 34.2362 368.863 34.6063 369.662 35.3466C370.475 36.0724 370.882 37.1828 370.882 38.6779V45.776H369.4ZM365.455 45.8849C364.598 45.8849 363.85 45.747 363.211 45.4712C362.586 45.1809 362.106 44.7889 361.772 44.2954C361.438 43.7874 361.271 43.2068 361.271 42.5536C361.271 41.9584 361.409 41.4214 361.685 40.9423C361.975 40.4488 362.44 40.0569 363.08 39.7666C363.734 39.4618 364.605 39.3094 365.695 39.3094H369.64V40.4633H365.739C364.634 40.4633 363.864 40.6593 363.428 41.0512C363.007 41.4431 362.796 41.9294 362.796 42.51C362.796 43.1632 363.051 43.6858 363.559 44.0777C364.068 44.4696 364.78 44.6656 365.695 44.6656C366.567 44.6656 367.315 44.4696 367.94 44.0777C368.579 43.6712 369.044 43.0906 369.335 42.3358L369.684 43.4027C369.393 44.1575 368.884 44.7599 368.158 45.2099C367.446 45.6599 366.545 45.8849 365.455 45.8849Z" fill="#E8F0FD"/>
<path d="M375.002 45.776V34.3451H385.289V45.776H383.741V35.2813L384.134 35.695H376.157L376.549 35.2813V45.776H375.002Z" fill="#E8F0FD"/>
<path d="M394.395 45.8849C393.291 45.8849 392.296 45.6381 391.409 45.1446C390.537 44.6365 389.847 43.947 389.339 43.0761C388.83 42.1907 388.576 41.1819 388.576 40.0496C388.576 38.9029 388.83 37.8941 389.339 37.0232C389.847 36.1522 390.537 35.47 391.409 34.9765C392.281 34.483 393.276 34.2362 394.395 34.2362C395.528 34.2362 396.531 34.483 397.403 34.9765C398.289 35.47 398.979 36.1522 399.473 37.0232C399.982 37.8941 400.236 38.9029 400.236 40.0496C400.236 41.1819 399.982 42.1907 399.473 43.0761C398.979 43.947 398.289 44.6365 397.403 45.1446C396.516 45.6381 395.514 45.8849 394.395 45.8849ZM394.395 44.5131C395.223 44.5131 395.957 44.3317 396.596 43.9688C397.236 43.5914 397.737 43.0689 398.1 42.4011C398.478 41.7189 398.667 40.9351 398.667 40.0496C398.667 39.1497 398.478 38.3658 398.1 37.6981C397.737 37.0304 397.236 36.5151 396.596 36.1522C395.957 35.7748 395.231 35.5861 394.417 35.5861C393.603 35.5861 392.877 35.7748 392.237 36.1522C391.598 36.5151 391.09 37.0304 390.712 37.6981C390.334 38.3658 390.145 39.1497 390.145 40.0496C390.145 40.9351 390.334 41.7189 390.712 42.4011C391.09 43.0689 391.598 43.5914 392.237 43.9688C392.877 44.3317 393.596 44.5131 394.395 44.5131Z" fill="#E8F0FD"/>
<path d="M401.387 45.7542L401.496 44.4261C401.598 44.4406 401.692 44.4623 401.779 44.4914C401.881 44.5059 401.968 44.5131 402.041 44.5131C402.506 44.5131 402.876 44.339 403.152 43.9906C403.443 43.6422 403.661 43.1777 403.806 42.5971C403.952 42.0165 404.053 41.3633 404.111 40.6375C404.17 39.8972 404.22 39.1569 404.264 38.4167L404.46 34.3451H412.851V45.776H411.304V35.2378L411.696 35.695H405.463L405.833 35.216L405.659 38.5255C405.615 39.5126 405.535 40.4561 405.419 41.356C405.317 42.256 405.15 43.0471 404.918 43.7293C404.7 44.4115 404.395 44.9486 404.002 45.3405C403.61 45.7179 403.109 45.9066 402.499 45.9066C402.324 45.9066 402.143 45.8921 401.954 45.8631C401.779 45.8341 401.591 45.7978 401.387 45.7542Z" fill="#E8F0FD"/>
<path d="M417.25 45.776V34.3451H418.797V39.3964H426.012V34.3451H427.559V45.776H426.012V40.7246H418.797V45.776H417.25Z" fill="#E8F0FD"/>
<path d="M436.861 45.8849C435.67 45.8849 434.623 45.6381 433.723 45.1446C432.822 44.6365 432.117 43.947 431.608 43.0761C431.1 42.1907 430.846 41.1819 430.846 40.0496C430.846 38.9174 431.085 37.9159 431.565 37.0449C432.059 36.174 432.727 35.4918 433.57 34.9983C434.427 34.4902 435.386 34.2362 436.447 34.2362C437.522 34.2362 438.474 34.483 439.302 34.9765C440.145 35.4555 440.806 36.1377 441.285 37.0232C441.765 37.8941 442.005 38.9029 442.005 40.0496C442.005 40.1222 441.997 40.2021 441.983 40.2891C441.983 40.3617 441.983 40.4416 441.983 40.5287H432.023V39.3747H441.155L440.544 39.8319C440.544 39.0045 440.363 38.2715 439.999 37.6328C439.651 36.9796 439.171 36.4716 438.561 36.1087C437.951 35.7458 437.246 35.5644 436.447 35.5644C435.662 35.5644 434.958 35.7458 434.333 36.1087C433.708 36.4716 433.221 36.9796 432.873 37.6328C432.524 38.286 432.349 39.0336 432.349 39.8755V40.115C432.349 40.9859 432.538 41.7552 432.916 42.4229C433.308 43.0761 433.846 43.5914 434.529 43.9688C435.226 44.3317 436.018 44.5131 436.905 44.5131C437.602 44.5131 438.249 44.3898 438.844 44.143C439.455 43.8962 439.978 43.5188 440.414 43.0108L441.285 44.0124C440.777 44.622 440.137 45.0865 439.367 45.4059C438.612 45.7252 437.776 45.8849 436.861 45.8849Z" fill="#E8F0FD"/>
<path d="M445.43 45.776V34.3451H446.977V39.3964H454.191V34.3451H455.739V45.776H454.191V40.7246H446.977V45.776H445.43Z" fill="#E8F0FD"/>
<path d="M460.137 45.776V34.3451H461.684V43.4245L469.334 34.3451H470.707V45.776H469.16V36.6748L461.532 45.776H460.137Z" fill="#E8F0FD"/>
<path d="M482.531 45.776V41.6609L482.814 41.9875H478.934C477.467 41.9875 476.319 41.6681 475.491 41.0294C474.663 40.3908 474.249 39.4618 474.249 38.2425C474.249 36.9361 474.692 35.9635 475.578 35.3249C476.464 34.6717 477.649 34.3451 479.131 34.3451H483.947V45.776H482.531ZM474.161 45.776L477.3 41.3778H478.913L475.84 45.776H474.161ZM482.531 41.2036V35.2378L482.814 35.695H479.174C478.113 35.695 477.285 35.8982 476.69 36.3046C476.108 36.7111 475.818 37.3715 475.818 38.286C475.818 39.9843 476.9 40.8335 479.065 40.8335H482.814L482.531 41.2036Z" fill="#E8F0FD"/>
<path d="M494.063 45.776V34.3451H499.12C500.413 34.3451 501.43 34.5918 502.171 35.0854C502.927 35.5789 503.304 36.3046 503.304 37.2627C503.304 38.1917 502.948 38.9102 502.236 39.4182C501.525 39.9117 500.587 40.1585 499.425 40.1585L499.73 39.7013C501.096 39.7013 502.098 39.9553 502.738 40.4633C503.377 40.9714 503.697 41.7044 503.697 42.6624C503.697 43.6495 503.333 44.4188 502.607 44.9704C501.895 45.5075 500.784 45.776 499.272 45.776H494.063ZM495.567 44.5567H499.207C500.181 44.5567 500.914 44.4043 501.408 44.0995C501.917 43.7801 502.171 43.2721 502.171 42.5753C502.171 41.8786 501.946 41.3705 501.495 41.0512C501.045 40.7319 500.333 40.5722 499.36 40.5722H495.567V44.5567ZM495.567 39.4182H499.011C499.897 39.4182 500.573 39.2513 501.038 38.9174C501.517 38.5836 501.757 38.0973 501.757 37.4586C501.757 36.82 501.517 36.3409 501.038 36.0216C500.573 35.7023 499.897 35.5426 499.011 35.5426H495.567V39.4182Z" fill="#E8F0FD"/>
<path d="M507.323 45.776V34.3451H508.871V43.4245L516.521 34.3451H517.894V45.776H516.346V36.6748L508.718 45.776H507.323Z" fill="#E8F0FD"/>
<path d="M525.167 45.9066C524.339 45.9066 523.518 45.7905 522.705 45.5583C521.891 45.326 521.172 44.9704 520.547 44.4914L521.048 43.3374C521.6 43.7438 522.24 44.0559 522.966 44.2736C523.693 44.4769 524.412 44.5785 525.124 44.5785C525.836 44.564 526.453 44.4623 526.976 44.2736C527.499 44.0849 527.906 43.8237 528.197 43.4898C528.487 43.156 528.633 42.7786 528.633 42.3576C528.633 41.748 528.357 41.2762 527.805 40.9423C527.252 40.594 526.497 40.4198 525.538 40.4198H523.576V39.2876H525.429C525.996 39.2876 526.497 39.215 526.933 39.0698C527.369 38.9247 527.703 38.7142 527.935 38.4384C528.182 38.1626 528.306 37.836 528.306 37.4586C528.306 37.0522 528.16 36.7038 527.87 36.4135C527.594 36.1232 527.209 35.9055 526.715 35.7603C526.221 35.6152 525.661 35.5426 525.037 35.5426C524.47 35.5571 523.881 35.6442 523.271 35.8039C522.661 35.949 522.058 36.174 521.462 36.4788L521.026 35.2813C521.695 34.9329 522.356 34.6717 523.01 34.4975C523.678 34.3088 524.346 34.2144 525.015 34.2144C525.93 34.1854 526.751 34.2943 527.478 34.541C528.219 34.7878 528.807 35.1434 529.243 35.6079C529.679 36.0579 529.897 36.6022 529.897 37.2409C529.897 37.807 529.722 38.3005 529.374 38.7215C529.025 39.1424 528.56 39.469 527.979 39.7013C527.398 39.9335 526.737 40.0496 525.996 40.0496L526.061 39.636C527.369 39.636 528.386 39.89 529.112 40.398C529.853 40.9061 530.224 41.5955 530.224 42.4665C530.224 43.1487 529.999 43.7511 529.548 44.2736C529.098 44.7817 528.487 45.1809 527.717 45.4712C526.962 45.7615 526.112 45.9066 525.167 45.9066Z" fill="#E8F0FD"/>
<path d="M533.737 45.776V34.3451H535.284V43.4245L542.934 34.3451H544.307V45.776H542.76V36.6748L535.131 45.776H533.737Z" fill="#E8F0FD"/>
<path d="M550.921 45.776V35.2813L551.313 35.695H546.584V34.3451H556.806V35.695H552.076L552.469 35.2813V45.776H550.921Z" fill="#E8F0FD"/>
<path d="M563.219 45.8849C562.114 45.8849 561.119 45.6381 560.233 45.1446C559.361 44.6365 558.671 43.947 558.162 43.0761C557.654 42.1907 557.399 41.1819 557.399 40.0496C557.399 38.9029 557.654 37.8941 558.162 37.0232C558.671 36.1522 559.361 35.47 560.233 34.9765C561.105 34.483 562.1 34.2362 563.219 34.2362C564.352 34.2362 565.354 34.483 566.226 34.9765C567.113 35.47 567.803 36.1522 568.297 37.0232C568.805 37.8941 569.06 38.9029 569.06 40.0496C569.06 41.1819 568.805 42.1907 568.297 43.0761C567.803 43.947 567.113 44.6365 566.226 45.1446C565.34 45.6381 564.337 45.8849 563.219 45.8849ZM563.219 44.5131C564.047 44.5131 564.781 44.3317 565.42 43.9688C566.059 43.5914 566.56 43.0689 566.924 42.4011C567.302 41.7189 567.49 40.9351 567.49 40.0496C567.49 39.1497 567.302 38.3658 566.924 37.6981C566.56 37.0304 566.059 36.5151 565.42 36.1522C564.781 35.7748 564.054 35.5861 563.24 35.5861C562.427 35.5861 561.7 35.7748 561.061 36.1522C560.422 36.5151 559.913 37.0304 559.535 37.6981C559.158 38.3658 558.969 39.1497 558.969 40.0496C558.969 40.9351 559.158 41.7189 559.535 42.4011C559.913 43.0689 560.422 43.5914 561.061 43.9688C561.7 44.3317 562.419 44.5131 563.219 44.5131Z" fill="#E8F0FD"/>
<path d="M572.367 45.776V34.3451H577.423C578.716 34.3451 579.733 34.5918 580.474 35.0854C581.23 35.5789 581.608 36.3046 581.608 37.2627C581.608 38.1917 581.252 38.9102 580.54 39.4182C579.828 39.9117 578.891 40.1585 577.728 40.1585L578.033 39.7013C579.399 39.7013 580.402 39.9553 581.041 40.4633C581.68 40.9714 582 41.7044 582 42.6624C582 43.6495 581.637 44.4188 580.91 44.9704C580.198 45.5075 579.087 45.776 577.576 45.776H572.367ZM573.871 44.5567H577.51C578.484 44.5567 579.218 44.4043 579.712 44.0995C580.22 43.7801 580.474 43.2721 580.474 42.5753C580.474 41.8786 580.249 41.3705 579.799 41.0512C579.348 40.7319 578.636 40.5722 577.663 40.5722H573.871V44.5567ZM573.871 39.4182H577.314C578.201 39.4182 578.876 39.2513 579.341 38.9174C579.821 38.5836 580.06 38.0973 580.06 37.4586C580.06 36.82 579.821 36.3409 579.341 36.0216C578.876 35.7023 578.201 35.5426 577.314 35.5426H573.871V39.4182Z" fill="#E8F0FD"/>
</svg>
