<svg width="500" height="114" viewBox="0 0 500 114" fill="none" xmlns="http://www.w3.org/2000/svg">
<path d="M251.054 0H428.27C430.603 0 432.489 1.89033 432.489 4.21925V54.8523H440.928V16.8775C440.928 14.5486 442.814 12.6582 445.147 12.6582H478.903C480.628 12.6582 482.177 13.709 482.822 15.3081L499.7 57.5021C499.899 58.0045 500 58.536 500 59.072V101.266C500 103.595 498.114 105.485 495.781 105.485H480.776C477.848 110.507 472.464 113.924 466.245 113.924C456.936 113.924 449.367 106.355 449.367 97.0468H432.49C432.49 106.355 424.92 113.924 415.612 113.924C406.304 113.924 398.735 106.355 398.735 97.0468H386.076C383.743 97.0468 381.857 95.1564 381.857 92.8275V63.2913H373.418V92.5106C373.506 93.5361 373.223 94.5695 372.595 95.4091C371.802 96.4722 370.548 97.1012 369.215 97.1012H369.211L356.536 97.0883C356.514 106.375 348.957 113.924 339.662 113.924C330.354 113.924 322.785 106.354 322.785 97.0463H297.468C297.468 106.355 289.898 113.924 280.591 113.924C271.282 113.924 263.713 106.354 263.713 97.0463H251.055C248.721 97.0463 246.836 95.1559 246.836 92.827V59.0715V4.21925C246.835 1.89033 248.721 0 251.054 0ZM482.798 37.9748H466.245V54.8523H489.549L482.798 37.9748ZM466.245 105.485C470.898 105.485 474.684 101.701 474.684 97.0463C474.684 92.3924 470.899 88.6073 466.245 88.6073C461.591 88.6073 457.806 92.3919 457.806 97.0463C457.806 101.701 461.591 105.485 466.245 105.485ZM415.612 105.485C420.265 105.485 424.051 101.701 424.051 97.0463C424.051 92.3924 420.266 88.6073 415.612 88.6073C410.958 88.6073 407.173 92.3919 407.173 97.0463C407.173 101.701 410.958 105.485 415.612 105.485ZM390.295 71.7303H394.514C396.848 71.7303 398.734 73.6206 398.734 75.9495C398.734 78.2784 396.848 80.1688 394.514 80.1688H390.295V88.6078H401.08C404.008 83.5865 409.388 80.1688 415.612 80.1688C421.835 80.1688 427.215 83.5865 430.143 88.6078H451.717C454.641 83.5865 460.025 80.1688 466.245 80.1688C475.553 80.1688 483.122 87.7385 483.122 97.0463H491.561V80.1688H487.342C485.008 80.1688 483.123 78.2784 483.123 75.9495C483.123 73.6206 485.008 71.7303 487.342 71.7303H491.561V63.2913H462.025C459.692 63.2913 457.806 61.4009 457.806 59.072V33.7555C457.806 31.4266 459.692 29.5363 462.025 29.5363H479.422L476.046 21.0973H449.367V59.072C449.367 61.4009 447.481 63.2913 445.148 63.2913H390.296V71.7303H390.295ZM339.662 105.485C344.316 105.485 348.101 101.701 348.101 97.0463C348.101 92.3924 344.316 88.6073 339.662 88.6073C335.008 88.6073 331.223 92.3919 331.223 97.0463C331.224 101.701 335.008 105.485 339.662 105.485ZM280.591 105.485C285.244 105.485 289.03 101.701 289.03 97.0463C289.03 92.3924 285.245 88.6073 280.591 88.6073C275.937 88.6073 272.152 92.3919 272.152 97.0463C272.152 101.701 275.936 105.485 280.591 105.485ZM255.274 71.7303H259.493C261.827 71.7303 263.713 73.6206 263.713 75.9495C263.713 78.2784 261.827 80.1688 259.493 80.1688H255.274V88.6078H266.059C268.987 83.5865 274.367 80.1688 280.591 80.1688C286.814 80.1688 292.194 83.5865 295.122 88.6078H325.135C328.063 83.5865 333.443 80.1688 339.667 80.1688C345.903 80.1688 351.296 83.6078 354.22 88.6454L364.98 88.6582V63.2913H255.275V71.7303H255.274ZM255.274 54.8523H424.051V8.4385H255.274V54.8523Z" fill="#E8F0FD"/>
<path d="M45.2797 73.8398L27.2094 39.2406L46.7337 27.6372L72.9045 73.8398H45.2797ZM0 73.8398V0H24.5092V73.8398H0ZM17.4472 47.152V27.5317H44.9682V47.152H17.4472ZM49.1223 39.557L26.5863 37.2364L47.4606 0H73.0084L49.1223 39.557Z" fill="#E8F0FD"/>
<path d="M69.7484 73.8398L101.527 0H125.621L157.4 73.8398H132.06L108.589 11.8144H118.144L94.673 73.8398H69.7484ZM88.6495 60.9706L94.8807 43.0381H128.321L134.552 60.9706H88.6495Z" fill="#E8F0FD"/>
<path d="M164.11 73.8398V0H188.204V38.3967L213.232 0H236.287V73.8398H212.194V35.5486L187.269 73.8398H164.11Z" fill="#E8F0FD"/>
<path d="M3.90956 113.804C3.33616 113.804 2.72366 113.763 2.07207 113.683C1.42048 113.602 0.729785 113.467 0 113.279L0.469148 105.653C0.83404 105.734 1.17287 105.774 1.48563 105.774C2.50212 105.774 3.25797 105.344 3.75318 104.483C4.24839 103.622 4.58722 102.465 4.76967 101.013C4.95211 99.5332 5.0694 97.8789 5.12153 96.0497L5.47339 85.0343H28.5789V113.279H19.5087V90.4008L21.5026 92.4182H11.5332L13.3316 90.2797L13.1752 95.6866C13.097 98.4034 12.9146 100.878 12.6279 103.111C12.3673 105.317 11.9111 107.227 11.2595 108.841C10.608 110.428 9.68269 111.652 8.48375 112.512C7.31088 113.373 5.78615 113.804 3.90956 113.804Z" fill="#E8F0FD"/>
<path d="M47.3308 113.925C45.1153 113.925 43.0563 113.561 41.1537 112.835C39.2771 112.109 37.6481 111.087 36.2667 109.769C34.8853 108.424 33.8037 106.85 33.0218 105.048C32.2659 103.245 31.888 101.282 31.888 99.1566C31.888 97.0047 32.2659 95.041 33.0218 93.2656C33.8037 91.4633 34.8853 89.9031 36.2667 88.585C37.6481 87.24 39.2771 86.2044 41.1537 85.4781C43.0563 84.7518 45.1153 84.3887 47.3308 84.3887C49.5723 84.3887 51.6313 84.7518 53.5079 85.4781C55.3845 86.2044 57.0135 87.24 58.3948 88.585C59.7762 89.9031 60.8448 91.4633 61.6007 93.2656C62.3826 95.041 62.7735 97.0047 62.7735 99.1566C62.7735 101.282 62.3826 103.245 61.6007 105.048C60.8448 106.85 59.7762 108.424 58.3948 109.769C57.0135 111.087 55.3845 112.109 53.5079 112.835C51.6313 113.561 49.5723 113.925 47.3308 113.925ZM47.3308 106.218C48.1909 106.218 48.9858 106.056 49.7156 105.734C50.4715 105.411 51.123 104.954 51.6704 104.362C52.2438 103.743 52.6869 103.003 52.9996 102.143C53.3124 101.255 53.4688 100.26 53.4688 99.1566C53.4688 98.0537 53.3124 97.0719 52.9996 96.2111C52.6869 95.3234 52.2438 94.5837 51.6704 93.9919C51.123 93.3732 50.4715 92.9024 49.7156 92.5796C48.9858 92.2568 48.1909 92.0955 47.3308 92.0955C46.4707 92.0955 45.6627 92.2568 44.9068 92.5796C44.1771 92.9024 43.5255 93.3732 42.9521 93.9919C42.4047 94.5837 41.9747 95.3234 41.6619 96.2111C41.3491 97.0719 41.1928 98.0537 41.1928 99.1566C41.1928 100.26 41.3491 101.255 41.6619 102.143C41.9747 103.003 42.4047 103.743 42.9521 104.362C43.5255 104.954 44.1771 105.411 44.9068 105.734C45.6627 106.056 46.4707 106.218 47.3308 106.218Z" fill="#E8F0FD"/>
<path d="M66.0942 113.279V85.0343H86.9322V92.4182H73.1705L75.1644 90.3604V113.279H66.0942Z" fill="#E8F0FD"/>
<path d="M89.9945 113.279V85.0343H99.0647V99.7215L108.487 85.0343H117.166V113.279H108.096V98.6321L98.7128 113.279H89.9945Z" fill="#E8F0FD"/>
<path d="M135.789 113.925C133.599 113.925 131.566 113.575 129.69 112.876C127.839 112.149 126.223 111.127 124.842 109.809C123.487 108.491 122.431 106.931 121.675 105.128C120.919 103.326 120.541 101.336 120.541 99.1566C120.541 96.9778 120.919 94.9872 121.675 93.1849C122.431 91.3826 123.487 89.8224 124.842 88.5043C126.223 87.1862 127.839 86.1775 129.69 85.4781C131.566 84.7518 133.599 84.3887 135.789 84.3887C138.473 84.3887 140.845 84.8729 142.904 85.8413C144.989 86.8096 146.709 88.2084 148.065 90.0376L142.239 95.4041C141.431 94.355 140.532 93.548 139.542 92.9831C138.577 92.3913 137.483 92.0955 136.258 92.0955C135.293 92.0955 134.42 92.2568 133.638 92.5796C132.856 92.9024 132.179 93.3732 131.605 93.9919C131.058 94.6106 130.628 95.3638 130.315 96.2515C130.002 97.1123 129.846 98.0806 129.846 99.1566C129.846 100.233 130.002 101.214 130.315 102.102C130.628 102.963 131.058 103.703 131.605 104.321C132.179 104.94 132.856 105.411 133.638 105.734C134.42 106.056 135.293 106.218 136.258 106.218C137.483 106.218 138.577 105.935 139.542 105.37C140.532 104.779 141.431 103.958 142.239 102.909L148.065 108.276C146.709 110.078 144.989 111.477 142.904 112.472C140.845 113.44 138.473 113.925 135.789 113.925Z" fill="#E8F0FD"/>
<path d="M156.878 113.279V90.3604L158.872 92.4182H148.863V85.0343H173.962V92.4182H163.954L165.948 90.3604V113.279H156.878Z" fill="#E8F0FD"/>
<path d="M177.005 113.279V85.0343H186.075V99.7215L195.497 85.0343H204.177V113.279H195.106V98.6321L185.724 113.279H177.005Z" fill="#E8F0FD"/>
<path d="M225.849 113.279L219.046 100.044L226.396 95.6059L236.248 113.279H225.849ZM208.803 113.279V85.0343H218.03V113.279H208.803ZM215.371 103.071V95.5655H225.731V103.071H215.371ZM227.295 100.165L218.812 99.2777L226.67 85.0343H236.287L227.295 100.165Z" fill="#E8F0FD"/>
</svg>
