<svg width="20" height="20" viewBox="0 0 20 20" fill="none" xmlns="http://www.w3.org/2000/svg">
<path d="M11.6641 15.0007V5.00065C11.6641 4.55862 11.4885 4.1347 11.1759 3.82214C10.8633 3.50958 10.4394 3.33398 9.9974 3.33398H3.33073C2.8887 3.33398 2.46478 3.50958 2.15222 3.82214C1.83966 4.1347 1.66406 4.55862 1.66406 5.00065V14.1673C1.66406 14.3883 1.75186 14.6003 1.90814 14.7566C2.06442 14.9129 2.27638 15.0007 2.4974 15.0007H4.16406M4.16406 15.0007C4.16406 15.9211 4.91025 16.6673 5.83073 16.6673C6.7512 16.6673 7.4974 15.9211 7.4974 15.0007M4.16406 15.0007C4.16406 14.0802 4.91025 13.334 5.83073 13.334C6.7512 13.334 7.4974 14.0802 7.4974 15.0007M12.4974 15.0007H7.4974M12.4974 15.0007C12.4974 15.9211 13.2436 16.6673 14.1641 16.6673C15.0845 16.6673 15.8307 15.9211 15.8307 15.0007M12.4974 15.0007C12.4974 14.0802 13.2436 13.334 14.1641 13.334C15.0845 13.334 15.8307 14.0802 15.8307 15.0007M15.8307 15.0007H17.4974C17.7184 15.0007 17.9304 14.9129 18.0867 14.7566C18.2429 14.6003 18.3307 14.3883 18.3307 14.1673V11.1257C18.3304 10.9365 18.2657 10.7532 18.1474 10.6057L15.2474 6.98065C15.1695 6.88305 15.0706 6.80422 14.9581 6.74998C14.8456 6.69575 14.7223 6.6675 14.5974 6.66732H11.6641" stroke="white" stroke-width="2" stroke-linecap="round" stroke-linejoin="round"/>
</svg>
